<?xml version="1.0" encoding="UTF-8"?>
<svg version="1.1" xmlns="http://www.w3.org/2000/svg" width="473" height="361">
<path d="M0 0 C156.09 0 312.18 0 473 0 C473 119.13 473 238.26 473 361 C316.91 361 160.82 361 0 361 C0 241.87 0 122.74 0 0 Z " fill="#78CBCE" transform="translate(0,0)"/>
<path d="M0 0 C2.5625 1 2.5625 1 4.375 4.3125 C5.5625 8 5.5625 8 5.5625 12 C12.4925 12 19.4225 12 26.5625 12 C27.0575 14.475 27.0575 14.475 27.5625 17 C21.73884262 19.26475565 15.7064184 20.06548814 9.5625 21 C9.85125 21.61488281 10.14 22.22976562 10.4375 22.86328125 C10.80875 23.67152344 11.18 24.47976562 11.5625 25.3125 C11.93375 26.11300781 12.305 26.91351563 12.6875 27.73828125 C13.5625 30 13.5625 30 13.5625 33 C16.2025 33 18.8425 33 21.5625 33 C21.5625 33.99 21.5625 34.98 21.5625 36 C18.0975 36.495 18.0975 36.495 14.5625 37 C15.00980469 38.07636719 15.45710938 39.15273437 15.91796875 40.26171875 C18.7278342 47.04331849 21.52491639 53.82191974 24.125 60.6875 C26.30639097 66.42800256 28.70519478 72.05867245 31.140625 77.6953125 C32.40860784 80.64232756 33.65924584 83.59359311 34.875 86.5625 C35.18050781 87.30628906 35.48601562 88.05007812 35.80078125 88.81640625 C36.62846723 91.18910606 37.12375919 93.52828196 37.5625 96 C38.119375 95.95359375 38.67625 95.9071875 39.25 95.859375 C45.27436656 95.57443874 49.58507959 96.51241971 54.5625 100 C56.9375 102.5 56.9375 102.5 58.5625 105 C58.975 105.598125 59.3875 106.19625 59.8125 106.8125 C61.45559362 111.6048564 61.11207881 115.70099554 59.1875 120.25 C58.65125 121.1575 58.115 122.065 57.5625 123 C57.170625 123.78375 56.77875 124.5675 56.375 125.375 C55.9728125 126.179375 55.9728125 126.179375 55.5625 127 C56.119375 127.20625 56.67625 127.4125 57.25 127.625 C59.79062201 129.13564012 61.32757497 130.93858175 63.12109375 133.26953125 C65.11758068 135.66639767 67.35650545 137.794397 69.5625 140 C70.90467664 141.4066269 72.24668299 142.81343148 73.58296204 144.22566223 C75.62480946 146.37560197 77.68909238 148.50347747 79.75415039 150.63110352 C80.8366252 151.7540142 81.91183926 152.88396878 82.97973633 154.02075195 C84.53669263 155.67509261 86.11842427 157.30188201 87.70703125 158.92578125 C88.1750264 159.43506668 88.64302155 159.94435211 89.12519836 160.46907043 C91.10270234 162.44915099 92.76611052 163.89512522 95.59140015 164.2671814 C97.58358412 164.24083663 99.57398794 164.12373694 101.5625 164 C105.63587573 165.53712292 108.66348686 166.99097226 110.5625 171 C111.3863192 174.99704869 111.60195221 178.41005908 109.30859375 181.91796875 C106.15054563 185.00274429 103.36091519 186.40594258 98.9375 186.6875 C95.41790165 186.44166775 94.56744757 186.00378963 91.625 183.75 C89.5625 181 89.5625 181 88.67236328 178.91040039 C87.73483922 176.88821166 87.73483922 176.88821166 85.85888672 176.16967773 C85.16037598 176.00927002 84.46186523 175.8488623 83.7421875 175.68359375 C82.9162207 175.4822583 82.09025391 175.28092285 81.23925781 175.07348633 C79.8523877 174.7586731 79.8523877 174.7586731 78.4375 174.4375 C76.36628707 173.93337265 74.2960512 173.42522186 72.2265625 172.9140625 C71.04094727 172.62305664 69.85533203 172.33205078 68.63378906 172.03222656 C60.3188834 169.95129742 52.07227317 167.60014203 43.8125 165.3125 C41.226061 164.59826691 38.63944746 163.8846685 36.05282593 163.1710968 C34.42468766 162.72186347 32.79661373 162.27239687 31.16860962 161.82267761 C25.30331042 160.20257868 19.43492237 158.59410901 13.5625 157 C14.5625 155 15.5625 153 16.5625 151 C24.28308763 152.35302282 31.75553496 154.37528933 39.28369141 156.54153442 C42.78547245 157.54861252 46.29104802 158.54226919 49.796875 159.53515625 C50.87418884 159.84044502 50.87418884 159.84044502 51.9732666 160.15190125 C59.81555368 162.36652402 67.68592339 164.4736616 75.5625 166.5625 C76.22423218 166.73807434 76.88596436 166.91364868 77.56774902 167.09454346 C81.23185491 168.06611274 84.89677475 169.03455953 88.5625 170 C84.72012157 165.39989879 80.73595956 161.04306925 76.46484375 156.83984375 C75.90809464 156.28688126 75.35134552 155.73391876 74.77772522 155.16419983 C73.02092949 153.41947819 71.26090531 151.67807321 69.5 149.9375 C67.17280402 147.63709373 64.84907843 145.33326042 62.52734375 143.02734375 C62.00325424 142.51155258 61.47916473 141.99576141 60.93919373 141.46434021 C58.4189752 138.96074491 56.08318907 136.44052092 53.88037109 133.65112305 C51.80504289 130.69792461 51.80504289 130.69792461 48.51171875 130.5546875 C47.43535156 130.66039062 46.35898438 130.76609375 45.25 130.875 C39.29620743 131.15113744 35.35372201 130.64369476 30.5625 127 C26.4903535 122.82069175 24.4873244 118.82383798 24.3125 113 C24.41475707 109.59995238 24.88576578 107.0181216 26.5625 104 C27.284375 103.360625 28.00625 102.72125 28.75 102.0625 C29.348125 101.381875 29.94625 100.70125 30.5625 100 C30.18346931 95.28502953 28.6270387 91.28826162 26.83203125 86.94140625 C26.55912766 86.2751976 26.28622406 85.60898895 26.00505066 84.92259216 C25.13418859 82.8001106 24.25488891 80.68125312 23.375 78.5625 C22.8034483 77.17537241 22.23248016 75.78800422 21.66210938 74.40039062 C20.80970784 72.32737132 19.95722875 70.25438587 19.10379028 68.18179321 C17.14603617 63.42618481 15.19178497 58.66926566 13.26171875 53.90234375 C12.78951904 52.74081787 12.31731934 51.57929199 11.83081055 50.38256836 C10.54158744 46.94422647 9.52194859 43.54164736 8.5625 40 C6.2525 40.66 3.9425 41.32 1.5625 42 C1.9375 40.0625 1.9375 40.0625 2.5625 38 C3.5525 37.505 3.5525 37.505 4.5625 37 C3.90888676 32.53364288 2.82888795 28.32939946 1.5625 24 C0.43070313 24.5775 -0.70109375 25.155 -1.8671875 25.75 C-3.34885207 26.50020991 -4.83062873 27.25019847 -6.3125 28 C-7.05886719 28.3815625 -7.80523437 28.763125 -8.57421875 29.15625 C-9.28964844 29.5171875 -10.00507813 29.878125 -10.7421875 30.25 C-11.40202637 30.58515625 -12.06186523 30.9203125 -12.74169922 31.265625 C-14.4375 32 -14.4375 32 -16.4375 32 C-16.765625 29.30078125 -16.765625 29.30078125 -16.4375 26 C-14.171875 23.48046875 -14.171875 23.48046875 -11.1875 21.1875 C-10.21296875 20.41792969 -9.2384375 19.64835937 -8.234375 18.85546875 C-5.81199085 17.24844016 -4.26764695 16.41104515 -1.4375 16 C-1.73785156 15.33613281 -2.03820312 14.67226563 -2.34765625 13.98828125 C-2.72792969 13.10527344 -3.10820312 12.22226562 -3.5 11.3125 C-3.88285156 10.44238281 -4.26570312 9.57226562 -4.66015625 8.67578125 C-5.54009054 5.64686169 -5.43203406 3.9731882 -4.4375 1 C-2.4375 0 -2.4375 0 0 0 Z " fill="#20456A" transform="translate(183.4375,38)"/>
<path d="M0 0 C2.81074939 1.64402323 4.18808789 2.45552589 6 5 C6.33015615 6.39378419 6.61863587 7.79780633 6.875 9.20703125 C9.07574234 16.17781376 15.60279229 18.56881104 21.6875 21.75 C22.86016038 22.38668437 24.03140081 23.02599133 25.20117188 23.66796875 C27.44939177 24.89752392 29.70297286 26.11733895 31.96240234 27.32617188 C34.59908112 28.77907894 37.12265682 30.3122623 39.64453125 31.953125 C42.77176547 34.26038322 42.77176547 34.26038322 46 34 C47.03013277 32.35178756 48.03114628 30.68496298 49 29 C49.66 29 50.32 29 51 29 C50.835 30.216875 50.67 31.43375 50.5 32.6875 C50.38456644 34.89374965 50.38456644 34.89374965 51 37 C53.73785315 39.63158944 57.10955894 42 61 42 C63.64 37.38 66.28 32.76 69 28 C70.65 28.99 72.3 29.98 74 31 C73.71125 31.95261719 73.4225 32.90523437 73.125 33.88671875 C72.568125 35.76810547 72.568125 35.76810547 72 37.6875 C71.443125 39.54955078 71.443125 39.54955078 70.875 41.44921875 C69.76763782 45.70837137 69.76763782 45.70837137 70 50 C71.94955364 51.90442291 71.94955364 51.90442291 74.5 53.3125 C75.75296875 54.08013672 75.75296875 54.08013672 77.03125 54.86328125 C77.6809375 55.23839844 78.330625 55.61351562 79 56 C78.125 60.875 78.125 60.875 77 62 C71.20312894 61.65218774 67.84526564 59.89902585 63 57 C62.05898438 57.74507812 61.11796875 58.49015625 60.1484375 59.2578125 C58.89144876 60.21462483 57.63358998 61.17029492 56.375 62.125 C55.75753906 62.61871094 55.14007813 63.11242187 54.50390625 63.62109375 C52.69482069 64.97314717 51.07835444 66.11184313 49 67 C45.5390625 66.3046875 45.5390625 66.3046875 43 65 C48.58796635 57.2613387 48.58796635 57.2613387 51.875 54.125 C52.57625 53.42375 53.2775 52.7225 54 52 C54 51.34 54 50.68 54 50 C51.98208664 48.41030753 51.98208664 48.41030753 49.5 46.875 C48.6646875 46.33617187 47.829375 45.79734375 46.96875 45.2421875 C46.3190625 44.83226562 45.669375 44.42234375 45 44 C44.401875 44.33 43.80375 44.66 43.1875 45 C41 46 41 46 38 46 C39.5 43 39.5 43 41 40 C40.32710938 39.75378906 39.65421875 39.50757813 38.9609375 39.25390625 C35.36579279 37.73142412 32.01290176 35.86490744 28.625 33.9375 C27.58412231 33.35391724 27.58412231 33.35391724 26.5222168 32.75854492 C22.88566535 30.70442591 19.31093676 28.58763527 15.79296875 26.3359375 C15.12378418 25.91320557 14.45459961 25.49047363 13.76513672 25.05493164 C12.48708435 24.24172728 11.21859404 23.41324668 9.96142578 22.56811523 C8.02615747 21.28607956 8.02615747 21.28607956 5 20 C2.3540971 20.7270531 2.3540971 20.7270531 0 22 C-1.56929821 21.82328911 -3.13330662 21.5925117 -4.6875 21.3125 C-7.5417024 21.19661509 -9.25407928 21.34048918 -11.43310547 23.26708984 C-14.66721251 26.90971567 -17.36198213 30.9138787 -20 35 C-21.65 34.34 -23.3 33.68 -25 33 C-25 28.0324926 -23.76025594 27.10419363 -20.5625 23.4375 C-17.13498748 19.59063703 -17.13498748 19.59063703 -15 15 C-15.10416774 13.56084041 -15.23117813 12.12323902 -15.375 10.6875 C-15.40254095 7.8783226 -15.28935066 6.43668873 -13.7265625 4.078125 C-9.31752945 -0.11145392 -5.95652745 -1.0400286 0 0 Z " fill="#F9CE87" transform="translate(261,105)"/>
<path d="M0 0 C4.54545357 1.96280949 8.76131961 5.52263923 11 10 C11.04022391 12.3329866 11.04320247 14.66706666 11 17 C11.61931396 17.09724365 12.23862793 17.1944873 12.87670898 17.29467773 C20.4282158 18.56575066 27.74132105 20.44246312 35.11010742 22.51391602 C37.08950102 23.07008676 39.0709101 23.61857589 41.05273438 24.16601562 C50.70973069 26.85486535 50.70973069 26.85486535 53 28 C52.3125 29.9375 52.3125 29.9375 51 32 C47.0679002 33.25065478 44.4047867 32.83446088 40.5 31.671875 C39.45320068 31.36773682 38.40640137 31.06359863 37.32788086 30.75024414 C36.22968018 30.42016357 35.13147949 30.09008301 34 29.75 C31.75194131 29.09545679 29.50324743 28.44309099 27.25390625 27.79296875 C26.17641113 27.48020996 25.09891602 27.16745117 23.98876953 26.84521484 C18.70595221 25.35125033 13.37404401 24.12181833 8 23 C7.72285156 23.62390625 7.44570312 24.2478125 7.16015625 24.890625 C5.38578622 28.11675233 3.42527789 28.7544444 0 30 C-4.66850285 30.69317663 -7.99624199 30.501879 -12.25 28.375 C-19.57741583 22.04677724 -19.57741583 22.04677724 -20.44921875 17.82421875 C-20.71231165 12.42627813 -19.59420429 9.17704823 -16 5 C-10.6062309 0.24834627 -7.07481462 -0.6767214 0 0 Z " fill="#20446A" transform="translate(140,159)"/>
<path d="M0 0 C3.59706118 0.55224591 5.46654256 1.66942166 7.82421875 4.43359375 C10.06090516 8.90696656 9.05144535 15.00567405 9.06445312 19.98168945 C9.07413686 22.2271052 9.10514832 24.47159687 9.13671875 26.71679688 C9.14325127 28.14973416 9.14850077 29.58267798 9.15234375 31.015625 C9.1663623 32.96819214 9.1663623 32.96819214 9.18066406 34.96020508 C8.7006019 39.63818069 7.09998167 42.15783083 3.82421875 45.43359375 C0.70703125 45.8046875 0.70703125 45.8046875 -3.05078125 45.87109375 C-4.28570312 45.91105469 -5.520625 45.95101562 -6.79296875 45.9921875 C-10.17578125 45.43359375 -10.17578125 45.43359375 -12.35180664 43.39672852 C-14.62169892 39.70917898 -14.7709863 36.6691757 -14.7421875 32.46484375 C-14.74838608 31.70691528 -14.75458466 30.94898682 -14.76097107 30.16809082 C-14.76805114 28.5712207 -14.76492683 26.97427648 -14.75219727 25.37744141 C-14.7383197 22.94034567 -14.77243389 20.5070849 -14.81054688 18.0703125 C-14.81149809 16.51432198 -14.80963911 14.95832668 -14.8046875 13.40234375 C-14.81794571 12.67825317 -14.83120392 11.9541626 -14.84486389 11.20812988 C-14.77308927 7.289795 -14.28975192 5.57673921 -11.82006836 2.47485352 C-7.85485116 -0.5860994 -4.83916237 -0.19642356 0 0 Z " fill="#254C70" transform="translate(64.17578125,264.56640625)"/>
<path d="M0 0 C1.010625 -0.00128906 2.02125 -0.00257813 3.0625 -0.00390625 C6.83865751 0.72420923 8.34289645 1.77624508 11 4.5625 C11.49685304 7.45923972 11.67995441 9.76028008 11.62890625 12.65234375 C11.63131821 13.43388321 11.63373016 14.21542267 11.63621521 15.02064514 C11.63523743 16.67063478 11.62185988 18.32065749 11.59692383 19.97045898 C11.56265502 22.48860879 11.57625437 25.00323958 11.59570312 27.52148438 C11.58880297 29.12761903 11.57912903 30.73374466 11.56640625 32.33984375 C11.57136612 33.08894516 11.57632599 33.83804657 11.58143616 34.60984802 C11.50005243 38.24551386 11.0915879 40.41360392 9.17163086 43.53491211 C6.13819173 46.36714505 4.09299317 46.23085798 0 46.1875 C-1.8253125 46.20683594 -1.8253125 46.20683594 -3.6875 46.2265625 C-7 45.5625 -7 45.5625 -9.17163086 43.51904297 C-11.44961269 39.83545904 -11.59520513 36.79809344 -11.56640625 32.59375 C-11.57260483 31.83582153 -11.57880341 31.07789307 -11.58518982 30.29699707 C-11.59226989 28.70012695 -11.58914558 27.10318273 -11.57641602 25.50634766 C-11.56253845 23.06925192 -11.59665264 20.63599115 -11.63476562 18.19921875 C-11.63571684 16.64322823 -11.63385786 15.08723293 -11.62890625 13.53125 C-11.64216446 12.80715942 -11.65542267 12.08306885 -11.66908264 11.33703613 C-11.59730802 7.41870125 -11.11397067 5.70564546 -8.64428711 2.60375977 C-5.49826112 0.17518223 -3.93314258 -0.08528498 0 0 Z " fill="#21476C" transform="translate(268,264.4375)"/>
<path d="M0 0 C2.475 0.99 2.475 0.99 5 2 C5 5.6330018 4.24583912 6.30031841 2 9.0625 C1.35546875 9.86429688 0.7109375 10.66609375 0.046875 11.4921875 C-0.62859375 12.31976563 -1.3040625 13.14734375 -2 14 C-3.25128189 15.56147362 -4.50125896 17.12399366 -5.75 18.6875 C-6.41644531 19.51765625 -7.08289063 20.3478125 -7.76953125 21.203125 C-10.34512404 24.432765 -12.89153737 27.68449673 -15.4375 30.9375 C-18.84667731 35.29213384 -22.29566766 39.60625233 -25.8125 43.875 C-26.52792969 44.75671875 -27.24335938 45.6384375 -27.98046875 46.546875 C-29.26336451 48.10520873 -30.57579788 49.64003497 -31.92578125 51.140625 C-35.10147838 54.73721092 -35.10147838 54.73721092 -36.03515625 59.28125 C-35.80653154 60.82254015 -35.54814907 62.35975947 -35.2578125 63.890625 C-34.83393026 67.35875244 -35.97524088 69.25677797 -38 72 C-42.01612795 74.67741863 -45.20274224 75.69960009 -50 75 C-53.6578218 72.96006092 -55.66946174 71.49580738 -58 68 C-58.76579737 61.32662295 -58.76579737 61.32662295 -56.94921875 58.1796875 C-55.17251621 56.00990918 -53.52491118 54.26245559 -51 53 C-49.700625 53.0825 -48.40125 53.165 -47.0625 53.25 C-42.02205982 52.73303178 -39.62544713 49.99986205 -36.5625 46.25 C-34.66546055 43.86448125 -32.83085161 41.43645082 -31 39 C-30.05218197 37.78174652 -29.10169055 36.56556793 -28.1484375 35.3515625 C-24.98718376 31.30792946 -21.84863785 27.27295677 -19 23 C-18.34 23 -17.68 23 -17 23 C-16.67128906 22.22462891 -16.67128906 22.22462891 -16.3359375 21.43359375 C-14.45945789 18.01532826 -12.0578918 15.10041358 -9.625 12.0625 C-9.14289063 11.45470703 -8.66078125 10.84691406 -8.1640625 10.22070312 C-6.77990614 8.47734314 -5.39096037 6.73793395 -4 5 C-3.22398437 4.02933594 -2.44796875 3.05867187 -1.6484375 2.05859375 C-0.83246094 1.03958984 -0.83246094 1.03958984 0 0 Z " fill="#F7CE87" transform="translate(212,164)"/>
<path d="M0 0 C15.03571429 0 15.03571429 0 19 3 C22.46829208 8.19639581 21.57870947 15.04755972 21 21 C19.97996431 23.77141774 19.12093139 24.87906861 17 27 C16.34 27 15.68 27 15 27 C16.82876966 31.17739263 18.65007732 35.32514913 20.75 39.375 C22 42 22 42 22 45 C20.35 45 18.7 45 17 45 C16.55269531 43.92878906 16.10539062 42.85757813 15.64453125 41.75390625 C15.03485248 40.35633491 14.42412023 38.9592228 13.8125 37.5625 C13.52052734 36.85544922 13.22855469 36.14839844 12.92773438 35.41992188 C11.94382583 33.09909111 11.94382583 33.09909111 10 30 C8.35 29.67 6.7 29.34 5 29 C5 34.28 5 39.56 5 45 C3.35 45 1.7 45 0 45 C0 30.15 0 15.3 0 0 Z " fill="#254D71" transform="translate(213,265)"/>
<path d="M0 0 C14.88888889 0 14.88888889 0 19 3 C21.53977065 6.80965598 21.36753945 9.95835509 21.375 14.375 C21.39949219 15.13039063 21.42398438 15.88578125 21.44921875 16.6640625 C21.4700125 20.6287369 21.28794347 22.54853308 19.1015625 25.9765625 C15.9233074 29.03666685 14.18021646 29.11769508 9.875 29.0625 C8.26625 29.041875 6.6575 29.02125 5 29 C5 34.28 5 39.56 5 45 C3.35 45 1.7 45 0 45 C0 30.15 0 15.3 0 0 Z " fill="#274F72" transform="translate(97,265)"/>
<path d="M0 0 C1.65 0 3.3 0 5 0 C5.33 13.2 5.66 26.4 6 40 C8.97 40 11.94 40 15 40 C17.53760827 36.19358759 17.34977475 33.03139645 17.4140625 28.61328125 C17.43342865 27.79627243 17.4527948 26.97926361 17.4727478 26.13749695 C17.53250352 23.52927066 17.57891258 20.92100014 17.625 18.3125 C17.6631835 16.5436006 17.70223546 14.77471972 17.7421875 13.00585938 C17.83820168 8.67072341 17.92224735 4.3355004 18 0 C19.65 0 21.3 0 23 0 C23.07438973 5.30188966 23.12871511 10.60347268 23.16479492 15.90576172 C23.1798424 17.70789892 23.2002853 19.50999973 23.22631836 21.31201172 C23.26288021 23.90862021 23.27976681 26.50474275 23.29296875 29.1015625 C23.30845261 29.9017984 23.32393646 30.7020343 23.33988953 31.52651978 C23.3413478 36.41977533 22.71811247 39.75989323 20 44 C17.06461547 45.46769227 14.39222984 45.28669649 11.125 45.375 C9.89007813 45.42398438 8.65515625 45.47296875 7.3828125 45.5234375 C4 45 4 45 1.81298828 43.04467773 C-0.68105934 38.85624953 -0.50691122 35.54462766 -0.390625 30.76171875 C-0.38496521 29.88095169 -0.37930542 29.00018463 -0.37347412 28.09272766 C-0.3511533 25.29042307 -0.30096577 22.48941554 -0.25 19.6875 C-0.22992941 17.78322164 -0.21167961 15.87892316 -0.1953125 13.97460938 C-0.15130267 9.31590947 -0.08230549 4.65817435 0 0 Z " fill="#254D71" transform="translate(304,265)"/>
<path d="M0 0 C2.16040039 1.09985352 2.16040039 1.09985352 4 3 C4.50170898 6.03100586 4.50170898 6.03100586 4.49609375 9.71484375 C4.49754898 10.36699356 4.49900421 11.01914337 4.50050354 11.6910553 C4.49884558 13.06874055 4.48729528 14.44644452 4.46655273 15.82397461 C4.4376433 17.9270751 4.44593318 20.02764644 4.45898438 22.13085938 C4.45274499 23.47136636 4.44435247 24.81186541 4.43359375 26.15234375 C4.42384521 27.36913818 4.41409668 28.58593262 4.40405273 29.83959961 C3.97347343 33.20748423 3.37221515 34.61762547 1 37 C-1.88320917 37.72508429 -3.97257312 37.33638076 -7 37 C-10.31518625 32.02722063 -9.33276127 26.03722229 -9.31567383 20.21166992 C-9.31250636 17.94206059 -9.33600549 15.67374575 -9.36132812 13.40429688 C-9.3636004 11.96614748 -9.36430495 10.52799457 -9.36328125 9.08984375 C-9.36626221 7.77878662 -9.36924316 6.46772949 -9.37231445 5.11694336 C-9.24945068 4.08835205 -9.12658691 3.05976074 -9 2 C-5.51131349 -0.32579101 -4.10281481 -0.41865457 0 0 Z " fill="#75C7CB" transform="translate(271,269)"/>
<path d="M0 0 C2.16040039 1.09985352 2.16040039 1.09985352 4 3 C4.50170898 6.03100586 4.50170898 6.03100586 4.49609375 9.71484375 C4.49754898 10.36699356 4.49900421 11.01914337 4.50050354 11.6910553 C4.49884558 13.06874055 4.48729528 14.44644452 4.46655273 15.82397461 C4.4376433 17.9270751 4.44593318 20.02764644 4.45898438 22.13085938 C4.45274499 23.47136636 4.44435247 24.81186541 4.43359375 26.15234375 C4.42384521 27.36913818 4.41409668 28.58593262 4.40405273 29.83959961 C3.97113282 33.22579191 3.46629418 34.66825037 1 37 C-4.84898327 37.73112291 -4.84898327 37.73112291 -7.69384766 35.92407227 C-9.71237602 32.95061021 -9.3892678 30.33322201 -9.3984375 26.77734375 C-9.40130768 26.0760585 -9.40417786 25.37477325 -9.40713501 24.65223694 C-9.409174 23.1720397 -9.40365552 21.69181542 -9.39111328 20.21166992 C-9.37503143 17.94193597 -9.39097794 15.67397605 -9.41015625 13.40429688 C-9.40817426 11.96614189 -9.40433149 10.52798802 -9.3984375 9.08984375 C-9.39505371 7.77878662 -9.39166992 6.46772949 -9.38818359 5.11694336 C-9.26008301 4.08835205 -9.13198242 3.05976074 -9 2 C-5.51131349 -0.32579101 -4.10281481 -0.41865457 0 0 Z " fill="#77C9CD" transform="translate(64,269)"/>
<path d="M0 0 C6.27 0 12.54 0 19 0 C19 1.32 19 2.64 19 4 C14.38 4 9.76 4 5 4 C5 9.61 5 15.22 5 21 C8.63 21 12.26 21 16 21 C16 22.32 16 23.64 16 25 C12.37 25 8.74 25 5 25 C5 30.28 5 35.56 5 41 C9.95 41 14.9 41 20 41 C20 42.32 20 43.64 20 45 C13.4 45 6.8 45 0 45 C0 30.15 0 15.3 0 0 Z " fill="#23496E" transform="translate(391,265)"/>
<path d="M0 0 C7.59 0 15.18 0 23 0 C23 1.32 23 2.64 23 4 C20.03 4 17.06 4 14 4 C14 17.53 14 31.06 14 45 C12.35 45 10.7 45 9 45 C9 31.47 9 17.94 9 4 C6.03 4 3.06 4 0 4 C0 2.68 0 1.36 0 0 Z " fill="#244B6F" transform="translate(347,265)"/>
<path d="M0 0 C7.26 0 14.52 0 22 0 C22 1.32 22 2.64 22 4 C19.03 4 16.06 4 13 4 C13 17.53 13 31.06 13 45 C11.35 45 9.7 45 8 45 C8 31.47 8 17.94 8 4 C5.36 4 2.72 4 0 4 C0 2.68 0 1.36 0 0 Z " fill="#244C70" transform="translate(137,265)"/>
<path d="M0 0 C3.63 0 7.26 0 11 0 C11 1.32 11 2.64 11 4 C10.01 4 9.02 4 8 4 C8 16.21 8 28.42 8 41 C8.99 41 9.98 41 11 41 C11 42.32 11 43.64 11 45 C7.37 45 3.74 45 0 45 C0 43.68 0 42.36 0 41 C0.99 41 1.98 41 3 41 C3 28.79 3 16.58 3 4 C2.01 4 1.02 4 0 4 C0 2.68 0 1.36 0 0 Z " fill="#275073" transform="translate(178,265)"/>
<path d="M0 0 C7 0 7 0 9.41015625 0.99609375 C11.86415881 4.08922229 11.54085633 7.29166081 11.4375 11.0625 C11.44458984 11.79533203 11.45167969 12.52816406 11.45898438 13.28320312 C11.43359375 15.41015625 11.43359375 15.41015625 11 19 C8 21 8 21 0 21 C0 14.07 0 7.14 0 0 Z " fill="#75C6CA" transform="translate(102,269)"/>
<path d="M0 0 C7 0 7 0 9.4140625 1.02734375 C11.79510079 3.98898005 11.50530622 6.93792952 11.375 10.5625 C11.37371094 11.24763672 11.37242187 11.93277344 11.37109375 12.63867188 C11.28135927 17.71864073 11.28135927 17.71864073 9 20 C6.03 20 3.06 20 0 20 C0 13.4 0 6.8 0 0 Z " fill="#76C7CB" transform="translate(218,269)"/>
<path d="M0 0 C0 0.33 0 0.66 0 1 C-0.969375 1.309375 -1.93875 1.61875 -2.9375 1.9375 C-5.84065792 2.69523342 -5.84065792 2.69523342 -7 4 C-7.15873955 6.21687994 -7.25133837 8.43855298 -7.31640625 10.66015625 C-7.33718735 11.32462265 -7.35796844 11.98908905 -7.37937927 12.6736908 C-7.44493658 14.80318543 -7.50378785 16.93280668 -7.5625 19.0625 C-7.60567939 20.50326847 -7.64929349 21.94402399 -7.69335938 23.38476562 C-7.80062393 26.9230404 -7.90187371 30.46145869 -8 34 C-8.33 34 -8.66 34 -9 34 C-9.07406517 29.4793661 -9.12856045 24.959084 -9.16479492 20.43798828 C-9.17989711 18.89951426 -9.20038046 17.36108339 -9.22631836 15.82275391 C-9.26264074 13.61349859 -9.27971119 11.40481152 -9.29296875 9.1953125 C-9.30845261 8.50567413 -9.32393646 7.81603577 -9.33988953 7.10549927 C-9.34057617 5.16455078 -9.34057617 5.16455078 -9 2 C-5.5647952 -0.29013653 -4.014669 -0.17842973 0 0 Z " fill="#6BB7C0" transform="translate(64,269)"/>
</svg>
